<?xml version="1.0" encoding="UTF-8" standalone="no"?>
<!-- Created with Inkscape (http://www.inkscape.org/) -->

<svg
   width="210.00002mm"
   height="210.00014mm"
   viewBox="0 0 210.00001 210.00014"
   version="1.1"
   id="svg1"
   sodipodi:docname="tile.svg"
   inkscape:version="1.3.2 (091e20e, 2023-11-25, custom)"
   inkscape:export-filename="tile right.png"
   inkscape:export-xdpi="96"
   inkscape:export-ydpi="96"
   xmlns:inkscape="http://www.inkscape.org/namespaces/inkscape"
   xmlns:sodipodi="http://sodipodi.sourceforge.net/DTD/sodipodi-0.dtd"
   xmlns="http://www.w3.org/2000/svg"
   xmlns:svg="http://www.w3.org/2000/svg">
  <sodipodi:namedview
     id="namedview1"
     pagecolor="#ffffff"
     bordercolor="#000000"
     borderopacity="0.25"
     inkscape:showpageshadow="2"
     inkscape:pageopacity="0.0"
     inkscape:pagecheckerboard="0"
     inkscape:deskcolor="#d1d1d1"
     inkscape:document-units="mm"
     inkscape:zoom="0.40444726"
     inkscape:cx="274.44864"
     inkscape:cy="289.2837"
     inkscape:window-width="1280"
     inkscape:window-height="650"
     inkscape:window-x="1074"
     inkscape:window-y="262"
     inkscape:window-maximized="1"
     inkscape:current-layer="layer1" />
  <defs
     id="defs1" />
  <g
     inkscape:label="Layer 1"
     inkscape:groupmode="layer"
     id="layer1"
     transform="translate(-2.9220969e-5,7.1817398e-5)">
    <rect
       style="fill:#616161;fill-opacity:1;fill-rule:evenodd;stroke-width:4;stroke-linejoin:round;paint-order:markers fill stroke"
       id="rect1"
       width="210"
       height="210"
       x="-210.00002"
       y="2.9220962e-05"
       transform="rotate(-90)" />
    <path
       id="path1-2"
       style="display:inline;fill:#ffffff;fill-opacity:1;fill-rule:evenodd;stroke-width:4;stroke-linejoin:round;paint-order:markers fill stroke"
       d="M 2.9738541e-5,210.00007 H 37.288709 c 0,-32.87082 -17.39222,-30.79836 -17.39222,-55.49739 0,-10.07919 9.12122,-19.21755 17.39222,-29.284 6.85352,-8.34125 13.12479,-17.31779 13.12479,-28.013282 0,-5.53718 -6.18253,-8.60911 -13.12479,-11.45717 -9.0492,-3.71244 -19.4231,-7.03469 -19.4231,-14.8425 0,-5.9134 10.29722,-8.92192 19.4231,-13.0638 7.25865,-3.29443 13.77694,-7.30497 13.77694,-14.07305 0,-12.30066 -13.77694,-14.64321 -13.77694,-43.768899817398 H 2.9738541e-5 Z"
       sodipodi:nodetypes="ccsssssssccc"
       inkscape:label="path2" />
    <path
       style="display:inline;fill:none;fill-rule:evenodd;stroke:#212121;stroke-width:4;stroke-linejoin:round;stroke-opacity:1;paint-order:markers fill stroke"
       d="M 37.288709,-7.1817398e-5 C 37.288709,29.125588 51.065649,31.468188 51.065649,43.768828 c 0,6.76808 -6.51829,10.77862 -13.77694,14.07305 -9.12588,4.14187 -19.4231,7.1504 -19.4231,13.0638 0,7.8078 10.37391,11.13006 19.4231,14.84249 6.94225,2.84807 13.12479,5.92001 13.12479,11.45718 0,10.695472 -6.27128,19.672042 -13.12479,28.013282 -8.271,10.06644 -17.39222,19.20482 -17.39222,29.284 0,24.69901 17.39222,22.6266 17.39222,55.49739"
       id="path4" />
  </g>
</svg>
