<?xml version="1.0" encoding="UTF-8" standalone="no"?>
<!-- Created with Inkscape (http://www.inkscape.org/) -->

<svg
   width="210.00011mm"
   height="210.00011mm"
   viewBox="0 0 210.0001 210.00011"
   version="1.1"
   id="svg1"
   sodipodi:docname="tile.svg"
   inkscape:version="1.3.2 (091e20e, 2023-11-25, custom)"
   inkscape:export-filename="tile up.svg"
   inkscape:export-xdpi="96"
   inkscape:export-ydpi="96"
   xmlns:inkscape="http://www.inkscape.org/namespaces/inkscape"
   xmlns:sodipodi="http://sodipodi.sourceforge.net/DTD/sodipodi-0.dtd"
   xmlns="http://www.w3.org/2000/svg"
   xmlns:svg="http://www.w3.org/2000/svg">
  <sodipodi:namedview
     id="namedview1"
     pagecolor="#ffffff"
     bordercolor="#000000"
     borderopacity="0.25"
     inkscape:showpageshadow="2"
     inkscape:pageopacity="0.0"
     inkscape:pagecheckerboard="0"
     inkscape:deskcolor="#d1d1d1"
     inkscape:document-units="mm"
     inkscape:zoom="0.40444726"
     inkscape:cx="271.97613"
     inkscape:cy="323.89884"
     inkscape:window-width="1280"
     inkscape:window-height="650"
     inkscape:window-x="1074"
     inkscape:window-y="262"
     inkscape:window-maximized="1"
     inkscape:current-layer="layer1" />
  <defs
     id="defs1" />
  <g
     inkscape:label="Layer 1"
     inkscape:groupmode="layer"
     id="layer1"
     transform="translate(5e-5)">
    <rect
       style="fill:#616161;fill-opacity:1;fill-rule:evenodd;stroke-width:4;stroke-linejoin:round;paint-order:markers fill stroke"
       id="rect1"
       width="210"
       height="210"
       x="1.4382507e-05"
       y="-8.7628399e-07" />
    <path
       id="path1-2"
       style="display:inline;fill:#ffffff;fill-opacity:1;fill-rule:evenodd;stroke-width:4;stroke-linejoin:round;paint-order:markers fill stroke"
       inkscape:label="path2"
       d="m -5e-5,0 v 37.28868 c 32.870753,0 30.798406,-17.39222 55.497388,-17.39222 10.07917,0 19.21757,9.121236 29.284,17.39222 8.341234,6.853506 17.317812,13.12478 28.013282,13.12478 5.53716,0 8.60912,-6.182534 11.45718,-13.12478 3.71242,-9.049182 7.03471,-19.423104 14.8425,-19.423104 5.9134,0 8.92194,10.297242 13.0638,19.423104 3.29443,7.258636 7.30497,13.776937 14.07305,13.776937 5.95234,-0.11063 23.87244,-15.956752 23.87244,4.431771 0,10.07918 -9.12123,19.21756 -17.39222,29.284 -6.85351,8.341242 -13.12478,17.317802 -13.12478,28.013282 0,5.53717 6.18253,8.60912 13.12478,11.45718 9.04919,3.71243 19.42311,7.0347 19.42311,14.8425 0,5.9134 -10.29724,8.92193 -19.42311,13.0638 -7.25864,3.29443 -13.77694,7.30497 -13.77694,14.07305 0,12.30064 13.77694,14.64324 13.77694,43.7689 h 37.28868 V 37.28868 0 h -37.28868 z"
       sodipodi:nodetypes="ccssssssccsssssscccccc" />
    <path
       style="display:inline;fill:none;fill-opacity:1;fill-rule:evenodd;stroke:#212121;stroke-width:4;stroke-linejoin:round;stroke-opacity:1;paint-order:markers fill stroke"
       d="m -5e-5,37.28868 c 32.870753,0 30.798406,-17.39222 55.497388,-17.39222 10.07917,0 19.21757,9.121236 29.284,17.39222 8.341234,6.853506 17.317812,13.12478 28.013282,13.12478 5.53716,0 8.60912,-6.182534 11.45718,-13.12478 3.71242,-9.049182 7.03471,-19.423104 14.8425,-19.423104 5.9134,0 8.92194,10.297242 13.0638,19.423104 3.29443,7.258636 7.30497,13.776937 14.07305,13.776937 5.95234,-0.11063 23.87244,-15.956752 23.87244,4.431771 0,10.07918 -9.12123,19.21756 -17.39222,29.284 -6.85351,8.341242 -13.12478,17.317802 -13.12478,28.013282 0,5.53717 6.18253,8.60912 13.12478,11.45718 9.04919,3.71243 19.42311,7.0347 19.42311,14.8425 0,5.9134 -10.29724,8.92193 -19.42311,13.0638 -7.25864,3.29443 -13.77694,7.30497 -13.77694,14.07305 0,12.30064 13.77694,14.64324 13.77694,43.7689"
       id="path5" />
  </g>
</svg>
