<?xml version="1.0" encoding="UTF-8" standalone="no"?>
<!-- Created with Inkscape (http://www.inkscape.org/) -->

<svg
   width="210.00011mm"
   height="210.00011mm"
   viewBox="0 0 210.0001 210.00011"
   version="1.1"
   id="svg1"
   sodipodi:docname="tile.svg"
   inkscape:version="1.3.2 (091e20e, 2023-11-25, custom)"
   inkscape:export-filename="tile up-left.svg"
   inkscape:export-xdpi="96"
   inkscape:export-ydpi="96"
   xml:space="preserve"
   xmlns:inkscape="http://www.inkscape.org/namespaces/inkscape"
   xmlns:sodipodi="http://sodipodi.sourceforge.net/DTD/sodipodi-0.dtd"
   xmlns="http://www.w3.org/2000/svg"
   xmlns:svg="http://www.w3.org/2000/svg"><sodipodi:namedview
     id="namedview1"
     pagecolor="#ffffff"
     bordercolor="#000000"
     borderopacity="0.25"
     inkscape:showpageshadow="2"
     inkscape:pageopacity="0.0"
     inkscape:pagecheckerboard="0"
     inkscape:deskcolor="#d1d1d1"
     inkscape:document-units="mm"
     inkscape:zoom="0.20222363"
     inkscape:cx="257.14107"
     inkscape:cy="178.02074"
     inkscape:window-width="1280"
     inkscape:window-height="650"
     inkscape:window-x="1074"
     inkscape:window-y="262"
     inkscape:window-maximized="1"
     inkscape:current-layer="layer1" /><defs
     id="defs1" /><g
     inkscape:label="Layer 1"
     inkscape:groupmode="layer"
     id="layer1"
     transform="translate(5e-5)"><rect
       style="fill:#616161;fill-opacity:1;fill-rule:evenodd;stroke-width:4;stroke-linejoin:round;paint-order:markers fill stroke"
       id="rect1"
       width="210"
       height="210"
       x="-210.00002"
       y="2.9220962e-05"
       transform="rotate(-90)" /><path
       id="path1-2"
       style="display:inline;fill:#ffffff;fill-opacity:1;fill-rule:evenodd;stroke-width:4;stroke-linejoin:round;paint-order:markers fill stroke"
       inkscape:label="path2"
       d="M -5e-5,0 V 37.28868 210.0001 h 37.28868 c 0,-32.87079 -17.39222,-30.79838 -17.39222,-55.49739 0,-10.07918 9.121228,-19.21756 17.39222,-29.284 6.853513,-8.34124 13.12478,-17.31779 13.12478,-28.013274 0,-5.537174 -6.182527,-8.609124 -13.12478,-11.457182 -9.049191,-3.712436 -19.423104,-7.034702 -19.423104,-14.842504 0,-5.913395 10.297233,-8.921927 19.423104,-13.063803 7.258643,-3.294426 15.349604,-7.490221 13.776937,-14.073042 -3.834252,-16.049295 -1.316945,-23.983434 4.431771,-23.872445 10.077302,0.19456 19.21756,9.121228 29.284,17.39222 8.341242,6.853513 17.317802,13.12478 28.013282,13.12478 5.53717,0 8.60912,-6.182527 11.45718,-13.12478 3.71243,-9.049191 7.0347,-19.423104 14.8425,-19.423104 5.9134,0 8.92193,10.297233 13.0638,19.423104 3.29443,7.258643 7.30497,13.776937 14.07305,13.776937 12.30064,0 14.64324,-13.776937 43.7689,-13.776937 V 0 H 37.28863 Z"
       sodipodi:nodetypes="ccccsssssssssssssscccc" /><path
       style="display:inline;fill:none;fill-opacity:1;fill-rule:evenodd;stroke:#212121;stroke-width:4;stroke-linejoin:round;stroke-opacity:1;paint-order:markers fill stroke"
       d="m 37.28863,210.0001 c 0,-32.87079 -17.39222,-30.79838 -17.39222,-55.49739 0,-10.07918 9.121228,-19.21756 17.39222,-29.284 6.853513,-8.34124 13.12478,-17.31779 13.12478,-28.013274 0,-5.537174 -6.182527,-8.609124 -13.12478,-11.457182 -9.049191,-3.712436 -19.423104,-7.034702 -19.423104,-14.842504 0,-5.913395 10.297233,-8.921927 19.423104,-13.063803 7.258643,-3.294426 15.349604,-7.490221 13.776937,-14.073042 -3.834252,-16.049295 -1.316945,-23.983434 4.431771,-23.872445 10.077302,0.19456 19.21756,9.121228 29.284,17.39222 8.341242,6.853513 17.317802,13.12478 28.013282,13.12478 5.53717,0 8.60912,-6.182527 11.45718,-13.12478 3.71243,-9.049191 7.0347,-19.423104 14.8425,-19.423104 5.9134,0 8.92193,10.297233 13.0638,19.423104 3.29443,7.258643 7.30497,13.776937 14.07305,13.776937 12.30064,0 14.64324,-13.776937 43.7689,-13.776937"
       id="path6" /></g></svg>
