<?xml version="1.0" encoding="UTF-8" standalone="no"?>
<!-- Created with Inkscape (http://www.inkscape.org/) -->

<svg
   width="210.00014mm"
   height="210mm"
   viewBox="0 0 210.00013 210"
   version="1.1"
   id="svg1"
   sodipodi:docname="tile.svg"
   inkscape:version="1.3.2 (091e20e, 2023-11-25, custom)"
   inkscape:export-filename="tile left.svg"
   inkscape:export-xdpi="96"
   inkscape:export-ydpi="96"
   xmlns:inkscape="http://www.inkscape.org/namespaces/inkscape"
   xmlns:sodipodi="http://sodipodi.sourceforge.net/DTD/sodipodi-0.dtd"
   xmlns="http://www.w3.org/2000/svg"
   xmlns:svg="http://www.w3.org/2000/svg">
  <sodipodi:namedview
     id="namedview1"
     pagecolor="#ffffff"
     bordercolor="#000000"
     borderopacity="0.25"
     inkscape:showpageshadow="2"
     inkscape:pageopacity="0.0"
     inkscape:pagecheckerboard="0"
     inkscape:deskcolor="#d1d1d1"
     inkscape:document-units="mm"
     inkscape:zoom="0.40444726"
     inkscape:cx="274.44864"
     inkscape:cy="289.2837"
     inkscape:window-width="1280"
     inkscape:window-height="650"
     inkscape:window-x="1074"
     inkscape:window-y="262"
     inkscape:window-maximized="1"
     inkscape:current-layer="layer1" />
  <defs
     id="defs1" />
  <g
     inkscape:label="Layer 1"
     inkscape:groupmode="layer"
     id="layer1"
     transform="translate(4.0358707e-5)">
    <rect
       style="fill:#616161;fill-opacity:1;fill-rule:evenodd;stroke-width:4;stroke-linejoin:round;paint-order:markers fill stroke"
       id="rect1"
       width="210"
       height="210"
       x="1.4382507e-05"
       y="-8.7628399e-07" />
    <path
       id="path1-2"
       style="display:inline;fill:#ffffff;fill-opacity:1;fill-rule:evenodd;stroke-width:4;stroke-linejoin:round;paint-order:markers fill stroke"
       d="M -4.0358706e-5,-3.5870588e-7 V 37.28868 C 32.870779,37.28868 30.798319,19.89646 55.497349,19.89646 c 10.07919,0 19.21755,9.12122 29.284,17.39222 8.34125,6.85352 17.317791,13.12479 28.013281,13.12479 5.53718,0 8.60911,-6.18253 11.45717,-13.12479 3.71244,-9.0492 7.03469,-19.4231 14.8425,-19.4231 5.9134,0 8.92192,10.29722 13.0638,19.4231 3.29443,7.25865 7.30497,13.77694 14.07305,13.77694 12.30066,0 14.64321,-13.77694 43.7689,-13.77694 V -3.5870585e-7 Z"
       sodipodi:nodetypes="ccsssssssccc"
       inkscape:label="path2" />
    <path
       style="display:inline;fill:none;fill-rule:evenodd;stroke:#212121;stroke-width:4;stroke-linejoin:round;stroke-opacity:1;paint-order:markers fill stroke"
       d="m 210.0001,37.28868 c -29.12566,0 -31.46826,13.77694 -43.7689,13.77694 -6.76808,0 -10.77862,-6.51829 -14.07305,-13.77694 -4.14187,-9.12588 -7.1504,-19.4231 -13.0638,-19.4231 -7.8078,0 -11.13006,10.37391 -14.84249,19.4231 -2.84807,6.94225 -5.92001,13.12479 -11.45718,13.12479 -10.69547,0 -19.672041,-6.27128 -28.013281,-13.12479 -10.06644,-8.271 -19.20482,-17.39222 -29.284,-17.39222 -24.69901,0 -22.6266,17.39222 -55.4973893587049,17.39222"
       id="path4" />
  </g>
</svg>
