<?xml version="1.0" encoding="UTF-8" standalone="no"?>
<!-- Created with Inkscape (http://www.inkscape.org/) -->

<svg
   width="106.69862mm"
   height="275.07736mm"
   viewBox="0 0 106.69863 275.07736"
   version="1.1"
   id="svg1"
   inkscape:version="1.3.2 (091e20e, 2023-11-25, custom)"
   sodipodi:docname="player left up.svg"
   xml:space="preserve"
   inkscape:export-filename="player left up.png"
   inkscape:export-xdpi="96"
   inkscape:export-ydpi="96"
   xmlns:inkscape="http://www.inkscape.org/namespaces/inkscape"
   xmlns:sodipodi="http://sodipodi.sourceforge.net/DTD/sodipodi-0.dtd"
   xmlns="http://www.w3.org/2000/svg"
   xmlns:svg="http://www.w3.org/2000/svg"
   xmlns:rdf="http://www.w3.org/1999/02/22-rdf-syntax-ns#"
   xmlns:cc="http://creativecommons.org/ns#"
   xmlns:dc="http://purl.org/dc/elements/1.1/"><style
     id="style12">
.measure-arrow
{
}
.measure-label
{

}
.measure-line
{
}</style><defs
     id="defs1"><inkscape:path-effect
       effect="perspective-envelope"
       up_left_point="82.002103,136.00198"
       up_right_point="135.9809,136.00198"
       down_left_point="82.002103,190.0644"
       down_right_point="135.9809,190.0644"
       id="path-effect12"
       is_visible="true"
       lpeversion="1"
       deform_type="perspective"
       horizontal_mirror="false"
       vertical_mirror="false"
       overflow_perspective="false" /><inkscape:path-effect
       effect="perspective-envelope"
       up_left_point="42.02427,242.83589"
       up_right_point="99.814133,246.60486"
       down_left_point="42.02427,301.47061"
       down_right_point="99.814133,297.70164"
       id="path-effect6"
       is_visible="true"
       lpeversion="1"
       deform_type="perspective"
       horizontal_mirror="true"
       vertical_mirror="false"
       overflow_perspective="false" /><inkscape:path-effect
       effect="mirror_symmetry"
       start_point="91.778044,201.35346"
       end_point="91.778044,237.05982"
       center_point="91.778044,219.20664"
       id="path-effect10"
       is_visible="true"
       lpeversion="1.2"
       lpesatellites=""
       mode="free"
       discard_orig_path="false"
       fuse_paths="false"
       oposite_fuse="false"
       split_items="false"
       split_open="false"
       link_styles="false" /><inkscape:path-effect
       effect="mirror_symmetry"
       start_point="91.778044,199.60403"
       end_point="91.778044,243.34495"
       center_point="91.778044,221.47449"
       id="path-effect3"
       is_visible="true"
       lpeversion="1.2"
       lpesatellites=""
       mode="free"
       discard_orig_path="false"
       fuse_paths="false"
       oposite_fuse="false"
       split_items="false"
       split_open="false"
       link_styles="false" /><inkscape:path-effect
       effect="mirror_symmetry"
       start_point="91.778044,126.71023"
       end_point="91.778046,132.00191"
       center_point="91.778045,129.35607"
       id="path-effect7"
       is_visible="true"
       lpeversion="1.2"
       lpesatellites=""
       mode="free"
       discard_orig_path="false"
       fuse_paths="false"
       oposite_fuse="false"
       split_items="false"
       split_open="false"
       link_styles="false" /><inkscape:path-effect
       effect="mirror_symmetry"
       start_point="91.778046,126.71024"
       end_point="91.778044,210.43824"
       center_point="91.778045,168.57424"
       id="path-effect5"
       is_visible="true"
       lpeversion="1.2"
       lpesatellites=""
       mode="free"
       discard_orig_path="false"
       fuse_paths="false"
       oposite_fuse="false"
       split_items="false"
       split_open="false"
       link_styles="false" /></defs><sodipodi:namedview
     id="base"
     pagecolor="#ffffff"
     bordercolor="#000000"
     borderopacity="0.3"
     inkscape:pageopacity="0.0"
     inkscape:pageshadow="2"
     inkscape:zoom="1.8101934"
     inkscape:cx="162.41359"
     inkscape:cy="951.832"
     inkscape:document-units="mm"
     inkscape:showpageshadow="2"
     inkscape:pagecheckerboard="0"
     inkscape:deskcolor="#d1d1d1"
     inkscape:window-width="1280"
     inkscape:window-height="650"
     inkscape:window-x="1074"
     inkscape:window-y="262"
     inkscape:window-maximized="1"
     inkscape:current-layer="g43" /><metadata
     id="metadata1"><rdf:RDF><cc:Work
         rdf:about=""><dc:format>image/svg+xml</dc:format><dc:type
           rdf:resource="http://purl.org/dc/dcmitype/StillImage" /></cc:Work></rdf:RDF></metadata><path
     id="rect2"
     style="fill:#000000;fill-rule:evenodd;stroke-width:10;paint-order:markers fill stroke"
     d="m 91.778046,126.71024 c 22.808364,2.88594 32.235454,17.51451 32.730024,27.23701 V 219.0372 H 91.778044 Z m 0,0 c -22.808364,2.88594 -32.235455,17.51451 -32.730025,27.23701 l -3e-6,65.08995 32.730026,0 z"
     sodipodi:nodetypes="ccccc"
     inkscape:path-effect="#path-effect5"
     inkscape:original-d="m 91.778046,126.71024 c 22.808364,2.88594 32.235454,17.51451 32.730024,27.23701 V 219.0372 H 91.778044 Z"
     transform="translate(-38.428738,-43.623643)"
     inkscape:label="shirt" /><circle
     style="fill:#ffe5c8;fill-opacity:1;fill-rule:evenodd;stroke-width:6.53972;paint-order:markers fill stroke"
     id="path3"
     cx="53.349308"
     cy="41.432499"
     inkscape:label="head"
     r="41.432499" /><path
     style="fill:#ffe5c8;fill-opacity:1;fill-rule:evenodd;stroke-width:10.0002;paint-order:markers fill stroke"
     id="rect5"
     width="4.3901901"
     height="6.6965179"
     x="91.778046"
     y="127.76849"
     inkscape:path-effect="#path-effect7"
     sodipodi:type="rect"
     d="m 91.778046,127.76849 h 4.39019 v 6.69652 h -4.39019 z m -3e-6,0 -4.39019,1e-5 5e-6,6.69651 4.39019,0 z"
     transform="matrix(1.0222271,0,0,1.0222271,-40.397823,-51.79478)"
     inkscape:label="Neck" /><g
     id="g43"
     inkscape:label="legs"
     transform="translate(-38.428738,-21.922618)"><g
       id="g21"
       transform="matrix(-1,0,0,0.25,213.77876,210.2009)"
       inkscape:label="right"><path
         style="fill:#ffe5c8;fill-opacity:1;fill-rule:evenodd;stroke-width:1.06058;paint-order:markers fill stroke"
         d="m 98.12476,241.07727 v 46.28814 c 0,5.33766 4.29688,9.63455 9.63455,9.63455 5.33767,0 9.63507,-4.29689 9.63507,-9.63455 v -46.28814 z"
         id="path29"
         inkscape:label="leg"
         transform="matrix(-1,0,0,4,213.24959,-840.8036)" /><g
         id="g30"
         inkscape:label="sock"><path
           id="path18"
           style="fill:#5bcefa;fill-opacity:1;fill-rule:evenodd;stroke:none;stroke-width:1.03385;stroke-dasharray:none;stroke-opacity:1;paint-order:markers fill stroke"
           d="m 115.12483,147.19604 v 50.00005 50.00005 50.00005 11.46183 c 0,21.35056 -4.29689,38.53822 -9.63455,38.53822 -5.33766,0 -9.635075,-17.18766 -9.635075,-38.53822 v -11.46183 -50.00005 -50.00005 -50.00005 z"
           inkscape:label="blue" /><path
           id="path19"
           style="fill:#f5a9b8;fill-opacity:1;fill-rule:evenodd;stroke:none;stroke-width:0.800817;stroke-dasharray:none;stroke-opacity:1;paint-order:markers fill stroke"
           d="m 115.12483,157.19647 v 29.9992 H 95.855205 v -29.9992 z m 0,50.00004 v 29.99921 H 95.855205 v -29.99921 z m 0,50.00005 v 29.99921 H 95.855205 v -29.99921 z m 0,50.00005 v 1.46141 c 0,11.35359 -1.22261,21.49719 -3.16311,28.53779 H 99.018836 c -1.940718,-7.04062 -3.163631,-17.18393 -3.163631,-28.53779 v -1.46141 z"
           inkscape:label="pink" /><path
           id="path20"
           style="fill:#ffffff;fill-opacity:1;fill-rule:evenodd;stroke:none;stroke-width:0.462352;stroke-dasharray:none;stroke-opacity:1;paint-order:markers fill stroke"
           d="m 115.12483,167.19689 v 10.00042 H 95.855205 v -10.00042 z m 0,50.00005 v 10.00042 H 95.855205 v -10.00042 z m 0,50.00005 v 10.00042 H 95.855205 v -10.00042 z m -0.24288,50.00004 c -0.19912,3.54268 -0.51447,6.90395 -0.93793,9.99836 H 97.036012 c -0.4235,-3.09441 -0.738261,-6.45568 -0.937411,-9.99836 z"
           inkscape:label="white" /></g></g><g
       id="g20"
       inkscape:label="left"
       transform="matrix(1,0,0,0.25,5.4445573,189.23017)"
       style="display:inline"><path
         style="display:inline;fill:#ffe5c8;fill-opacity:1;fill-rule:evenodd;stroke-width:1.06058;paint-order:markers fill stroke"
         d="m 61.622595,241.07727 v 46.28814 c 0,5.33766 4.833611,9.63455 10.837582,9.63455 6.003971,0 10.837064,-4.29689 10.837064,-9.63455 v -46.28814 z"
         id="path11"
         inkscape:label="leg"
         transform="matrix(1,0,0,4,-2.2695579,-840.8036)" /><g
         id="g29"
         inkscape:label="Sock"
         style="display:inline"><path
           id="rect38"
           style="fill:#5bcefa;fill-opacity:1;fill-rule:evenodd;stroke:none;stroke-width:1.03385;stroke-dasharray:none;stroke-opacity:1;paint-order:markers fill stroke"
           d="m 59.353037,147.19604 v 50.00005 50.00005 50.00005 11.46183 c 0,21.35056 4.833621,38.53822 10.837582,38.53822 6.003958,0 10.837064,-17.18766 10.837064,-38.53822 v -11.46183 -50.00005 -50.00005 -50.00005 z"
           inkscape:label="blue" /><path
           id="rect39"
           style="fill:#f5a9b8;fill-opacity:1;fill-rule:evenodd;stroke:none;stroke-width:0.800817;stroke-dasharray:none;stroke-opacity:1;paint-order:markers fill stroke"
           d="m 59.353037,157.19647 v 29.9992 h 21.674646 v -29.9992 z m 0,50.00004 v 29.99921 h 21.674646 v -29.99921 z m 0,50.00005 v 29.99921 h 21.674646 v -29.99921 z m 0,50.00005 v 1.46141 c 0,11.35338 1.375162,21.4972 3.557923,28.53779 h 14.558801 c 2.182716,-7.04061 3.557922,-17.18413 3.557922,-28.53779 v -1.46141 z"
           inkscape:label="pink" /><path
           id="rect40"
           style="fill:#ffffff;fill-opacity:1;fill-rule:evenodd;stroke:none;stroke-width:0.462352;stroke-dasharray:none;stroke-opacity:1;paint-order:markers fill stroke"
           d="m 59.353037,167.19689 v 10.00042 h 21.674646 v -10.00042 z m 0,50.00005 v 10.00042 h 21.674646 v -10.00042 z m 0,50.00005 v 10.00042 h 21.674646 v -10.00042 z m 0.273885,50.00004 c 0.223998,3.54259 0.577868,6.90403 1.0542,9.99836 h 19.018477 c 0.476292,-3.09433 0.830223,-6.45577 1.054199,-9.99836 z"
           inkscape:label="white" /></g></g></g><path
     id="path7"
     style="fill:#ffe5c8;fill-opacity:1;fill-rule:evenodd;stroke-width:10;paint-order:markers fill stroke"
     d="m 53.349123,83.086452 c -6.028194,0.76275 -11.112709,2.35138 -15.353585,4.44728 17.645099,19.133268 23.07935,29.927158 25.714714,-2.07636 -3.093946,-1.06637 -6.535125,-1.88681 -10.361129,-2.37092 z" /><g
     id="g31"
     inkscape:label="skirt"
     transform="translate(-38.428738,-21.922618)"><path
       style="fill:#000000;fill-rule:evenodd;stroke-width:10;paint-order:markers fill stroke"
       d="m 124.50807,197.33617 20.61928,43.74093 H 91.778044 v -43.74093 h 32.730026 m -65.460052,0 -20.61928,43.74093 H 91.778044 V 197.33617 H 59.048018"
       id="path1"
       sodipodi:nodetypes="ccccc"
       inkscape:label="skirt"
       inkscape:original-d="m 124.50807,197.33617 20.61928,43.74093 H 91.778044 v -43.74093 h 32.730026"
       inkscape:path-effect="#path-effect3" /><path
       id="path2"
       style="fill:#000000;fill-rule:evenodd;stroke:#ffffff;stroke-width:1;stroke-dasharray:none;stroke-opacity:1;paint-order:markers fill stroke"
       d="m 113.61425,201.65487 10.89391,35.55959 z m -9.57616,0.10646 9.79217,35.59989 z m -7.276038,0.078 5.480288,34.77359 z m 24.757148,0 17.57619,35.15186 z m -51.577362,-0.18446 -10.89391,35.55959 z m 9.57616,0.10646 -9.79217,35.59989 z m 7.276038,0.078 -5.480288,34.77359 z m -24.757148,0 -17.57619,35.15186 z"
       inkscape:label="skirt lines"
       inkscape:path-effect="#path-effect10"
       inkscape:original-d="m 113.61425,201.65487 10.89391,35.55959 z m -9.57616,0.10646 9.79217,35.59989 z m -7.276038,0.078 5.480288,34.77359 z m 24.757148,0 17.57619,35.15186 z" /></g><path
     id="path31"
     style="fill:#000000;fill-rule:evenodd;stroke-width:10;paint-order:markers fill stroke"
     inkscape:label="hair"
     d="M 53.349123,7.4753501e-5 A 41.432499,41.432499 0 0 0 11.917026,41.432688 41.432499,41.432499 0 0 0 15.567449,58.392893 C 32.178096,50.078609 36.439439,45.22814 43.013836,9.0951268 58.928503,40.758021 80.588272,28.961848 91.948312,26.407765 A 41.432499,41.432499 0 0 0 53.349123,7.4753501e-5 Z" /><g
     id="g25"
     inkscape:label="trans heart"
     style="display:inline"
     transform="matrix(0.78914985,0,0,1.0831075,-0.07284252,-153.7539)"
     clip-path="none"
     inkscape:path-effect="#path-effect6"><path
       id="rect23"
       style="fill:#5bcefa;fill-opacity:1;fill-rule:evenodd;stroke:none;stroke-width:1.03385;stroke-dasharray:none;stroke-opacity:1;paint-order:markers fill stroke"
       d="m 60.254164,244.03017 c -9.048269,-0.82095 -18.229586,5.84807 -18.229742,16.92037 0,24.12096 28.340941,37.05799 29.46617,37.56329 0.437572,0.19522 0.916066,0.28001 1.400074,0.24871 0.483976,-0.0297 0.96098,-0.17472 1.394602,-0.42409 1.107567,-0.64524 25.505665,-15.0058 25.505665,-35.9483 -1.77e-4,-14.03558 -15.662892,-22.29778 -25.419802,-12.49855 l -1.480465,1.48678 -1.490456,-1.64531 c -3.190719,-3.52123 -7.154984,-5.34078 -11.146046,-5.7029 z"
       inkscape:original-d="m 74.905998,247.11483 c -9.930199,-0.20139 -19.597793,6.01087 -19.597954,15.46895 0,20.60437 31.199472,33.14145 32.525087,33.6665 0.517417,0.20377 1.08446,0.30919 1.659356,0.3087 0.576189,9.7e-4 1.145383,-0.10447 1.66394,-0.3087 1.329417,-0.53123 32.521153,-13.13935 32.521153,-33.6665 -2.4e-4,-13.75721 -20.45354,-20.64746 -32.418343,-10.92111 l -1.76675,1.43611 -1.766095,-1.43611 c -3.738993,-3.03948 -8.306666,-4.45629 -12.820394,-4.54784 z" /><path
       id="rect24"
       style="fill:#f5a9b8;fill-opacity:1;fill-rule:evenodd;stroke:none;stroke-width:0.800817;stroke-dasharray:none;stroke-opacity:1;paint-order:markers fill stroke"
       d="m 43.171863,254.60739 c -0.729355,1.91384 -1.147408,4.03522 -1.147441,6.34315 0,12.22642 7.6391,21.837 15.079681,28.20279 l 30.434791,-1.19093 c 6.238915,-6.24731 12.252039,-14.93768 12.252039,-25.57225 -2.3e-5,-2.01135 -0.318085,-3.88387 -0.875664,-5.60141 z"
       inkscape:original-d="m 56.494608,257.12704 c -0.754925,1.66075 -1.18653,3.48528 -1.186564,5.45674 0,10.44393 8.015617,18.81043 16.093923,24.59516 h 36.141093 c 8.09173,-5.79517 16.13452,-14.1715 16.13452,-24.59516 -3e-5,-1.97146 -0.43163,-3.79599 -1.18656,-5.45674 z" /><path
       id="rect25"
       style="fill:#ffffff;fill-opacity:1;fill-rule:evenodd;stroke:none;stroke-width:0.462352;stroke-dasharray:none;stroke-opacity:1;paint-order:markers fill stroke"
       d="m 42.54251,266.29641 c 0.799975,4.26509 2.492171,8.1636 4.685285,11.65252 l 48.505449,-0.6327 c 1.730969,-3.12927 3.045433,-6.56071 3.660938,-10.27825 z"
       inkscape:original-d="m 55.843046,267.1445 c 0.828521,3.64506 2.590882,6.99249 4.894905,10.01746 h 57.485499 c 2.31294,-3.0271 4.08296,-6.37519 4.91586,-10.01746 z" /><path
       d="m 95.888167,192.51246 c -0.382108,0.0348 -0.760201,-0.0576 -1.105643,-0.27066 -0.888331,-0.5515 -23.263185,-14.67167 -23.263185,-41.05925 8e-5,-7.99879 3.506416,-14.94347 8.751546,-17.53072 5.090779,-2.51112 10.768368,-0.38353 14.440542,5.22694 l 1.17674,1.79838 1.168426,-1.62819 c 3.542217,-4.93451 8.727467,-6.00324 13.099887,-2.86731 4.25472,3.0515 6.96766,9.54191 6.96772,16.5124 0,22.90908 -19.260848,38.64559 -20.135226,39.35272 -0.342338,0.27329 -0.718725,0.43267 -1.100807,0.4657 z"
       id="path46"
       style="display:inline;fill:none;fill-opacity:1;stroke:#ffffff;stroke-width:3.61241;stroke-dasharray:none;stroke-opacity:1"
       inkscape:label="heart"
       inkscape:original-d="m 108.9915,190.06438 c -0.45389,5.7e-4 -0.90198,-0.11498 -1.31048,-0.3379 -1.04659,-0.5744 -25.678917,-14.28929 -25.678917,-36.82982 8.2e-5,-6.83265 3.65282,-12.99256 9.255161,-15.60773 5.602341,-2.61518 12.051166,-1.17068 16.339786,3.66 l 1.39445,1.57118 1.39446,-1.57118 c 4.28861,-4.83068 10.73744,-6.27518 16.33978,-3.66 5.60234,2.61517 9.25508,8.77508 9.25516,15.60773 0,22.45606 -24.62632,36.24866 -25.67591,36.82983 -0.40942,0.22343 -0.85858,0.33897 -1.31349,0.3379 z"
       inkscape:path-effect="#path-effect12"
       transform="matrix(1.2671865,0,0,0.9232694,-48.604071,121.71579)" /></g><path
     style="fill:#000000;fill-rule:evenodd;stroke-width:10;paint-order:markers fill stroke"
     d="M 26.368857,247.11599 H 88.263346"
     id="path4" /></svg>
